<svg t="1683815463150" class="icon" viewBox="0 0 1024 1024" version="1.1" xmlns="http://www.w3.org/2000/svg" p-id="11051" width="200" height="200"><path d="M418.908853 605.091195a23.272711 23.272711 0 0 0-23.272712 23.272711v69.818134a23.272711 23.272711 0 0 0 46.545423 0v-69.818134a23.272711 23.272711 0 0 0-23.272711-23.272711zM338.617999 528.989428l327.912503-74.472676A24.669074 24.669074 0 0 0 674.908678 409.600419c-40.959972-26.530891-131.258092-43.752697-237.381656 3.490907-74.239949 33.04725-109.149016 58.181779-123.578098 77.265401a24.669074 24.669074 0 0 0 24.669075 38.632701zM325.818007 628.363906a23.272711 23.272711 0 0 0-23.272711 23.272712v46.545422a23.272711 23.272711 0 0 0 46.545423 0v-46.545422a23.272711 23.272711 0 0 0-23.272712-23.272712zM511.999699 581.818483a23.272711 23.272711 0 0 0-23.272712 23.272712v93.090845a23.272711 23.272711 0 0 0 46.545423 0v-93.090845a23.272711 23.272711 0 0 0-23.272711-23.272712z" fill="#1296db" p-id="11052"></path><path d="M511.999699 0.000698a442.181517 442.181517 0 0 0-116.363558 869.003044A289.745257 289.745257 0 0 1 511.999699 1024a289.745257 289.745257 0 0 1 116.363557-154.996258A442.181517 442.181517 0 0 0 511.999699 0.000698z m-180.363514 170.821702a10.705447 10.705447 0 0 1 16.058171-7.912722l119.156282 55.156326a10.705447 10.705447 0 0 1 0 18.618169l-119.156282 54.225418a10.705447 10.705447 0 0 1-16.058171-9.309085zM255.999873 162.909678a23.272711 23.272711 0 0 1 46.545423 0v232.727114a23.272711 23.272711 0 0 1-46.545423 0z m141.730813 235.054385c222.021667-98.676296 395.636094 0 370.036111 49.338148l-542.71963 123.345371c-24.669074-24.669074-49.338148-74.007222 172.683519-172.683519zM814.544947 698.18204a46.545423 46.545423 0 0 1-46.545423 46.545423H255.999873a46.545423 46.545423 0 0 1-46.545423-46.545423v-46.545422a46.545423 46.545423 0 0 1 46.545423-46.545423l511.999651-116.363557a46.545423 46.545423 0 0 1 46.545423 46.545422z" fill="#1296db" p-id="11053"></path><path d="M605.090544 558.545772a23.272711 23.272711 0 0 0-23.272711 23.272711v116.363557a23.272711 23.272711 0 0 0 46.545423 0v-116.363557a23.272711 23.272711 0 0 0-23.272712-23.272711zM698.18139 535.27306a23.272711 23.272711 0 0 0-23.272712 23.272712v139.636268a23.272711 23.272711 0 0 0 46.545423 0v-139.636268a23.272711 23.272711 0 0 0-23.272711-23.272712z" fill="#1296db" p-id="11054"></path></svg>